<svg id="visual" viewBox="0 0 1920 1080" width="1920" height="1080" xmlns="http://www.w3.org/2000/svg" xmlns:xlink="http://www.w3.org/1999/xlink" version="1.1"><rect x="0" y="0" width="1920" height="1080" fill="#001220"></rect><path d="M0 711L45.7 712C91.3 713 182.7 715 274.2 730C365.7 745 457.3 773 548.8 769C640.3 765 731.7 729 823 719.3C914.3 709.7 1005.7 726.3 1097 728.5C1188.3 730.7 1279.7 718.3 1371.2 709C1462.7 699.7 1554.3 693.3 1645.8 695.8C1737.3 698.3 1828.7 709.7 1874.3 715.3L1920 721L1920 1081L1874.3 1081C1828.7 1081 1737.3 1081 1645.8 1081C1554.3 1081 1462.7 1081 1371.2 1081C1279.7 1081 1188.3 1081 1097 1081C1005.7 1081 914.3 1081 823 1081C731.7 1081 640.3 1081 548.8 1081C457.3 1081 365.7 1081 274.2 1081C182.7 1081 91.3 1081 45.7 1081L0 1081Z" fill="#76fa69"></path><path d="M0 846L45.7 844.5C91.3 843 182.7 840 274.2 819.3C365.7 798.7 457.3 760.3 548.8 748.5C640.3 736.7 731.7 751.3 823 775.2C914.3 799 1005.7 832 1097 839C1188.3 846 1279.7 827 1371.2 804.2C1462.7 781.3 1554.3 754.7 1645.8 755.5C1737.3 756.3 1828.7 784.7 1874.3 798.8L1920 813L1920 1081L1874.3 1081C1828.7 1081 1737.3 1081 1645.8 1081C1554.3 1081 1462.7 1081 1371.2 1081C1279.7 1081 1188.3 1081 1097 1081C1005.7 1081 914.3 1081 823 1081C731.7 1081 640.3 1081 548.8 1081C457.3 1081 365.7 1081 274.2 1081C182.7 1081 91.3 1081 45.7 1081L0 1081Z" fill="#62ee6d"></path><path d="M0 796L45.7 797C91.3 798 182.7 800 274.2 803.8C365.7 807.7 457.3 813.3 548.8 827.5C640.3 841.7 731.7 864.3 823 872.2C914.3 880 1005.7 873 1097 862.2C1188.3 851.3 1279.7 836.7 1371.2 833.7C1462.7 830.7 1554.3 839.3 1645.8 842.5C1737.3 845.7 1828.7 843.3 1874.3 842.2L1920 841L1920 1081L1874.3 1081C1828.7 1081 1737.3 1081 1645.8 1081C1554.3 1081 1462.7 1081 1371.2 1081C1279.7 1081 1188.3 1081 1097 1081C1005.7 1081 914.3 1081 823 1081C731.7 1081 640.3 1081 548.8 1081C457.3 1081 365.7 1081 274.2 1081C182.7 1081 91.3 1081 45.7 1081L0 1081Z" fill="#4ee170"></path><path d="M0 952L45.7 944C91.3 936 182.7 920 274.2 922.2C365.7 924.3 457.3 944.7 548.8 950.2C640.3 955.7 731.7 946.3 823 944.3C914.3 942.3 1005.7 947.7 1097 942C1188.3 936.3 1279.7 919.7 1371.2 907.5C1462.7 895.3 1554.3 887.7 1645.8 886.2C1737.3 884.7 1828.7 889.3 1874.3 891.7L1920 894L1920 1081L1874.3 1081C1828.7 1081 1737.3 1081 1645.8 1081C1554.3 1081 1462.7 1081 1371.2 1081C1279.7 1081 1188.3 1081 1097 1081C1005.7 1081 914.3 1081 823 1081C731.7 1081 640.3 1081 548.8 1081C457.3 1081 365.7 1081 274.2 1081C182.7 1081 91.3 1081 45.7 1081L0 1081Z" fill="#3ad472"></path><path d="M0 1008L45.7 1010.7C91.3 1013.3 182.7 1018.7 274.2 1009.8C365.7 1001 457.3 978 548.8 968.8C640.3 959.7 731.7 964.3 823 968.2C914.3 972 1005.7 975 1097 973.2C1188.3 971.3 1279.7 964.7 1371.2 969.2C1462.7 973.7 1554.3 989.3 1645.8 993.5C1737.3 997.7 1828.7 990.3 1874.3 986.7L1920 983L1920 1081L1874.3 1081C1828.7 1081 1737.3 1081 1645.8 1081C1554.3 1081 1462.7 1081 1371.2 1081C1279.7 1081 1188.3 1081 1097 1081C1005.7 1081 914.3 1081 823 1081C731.7 1081 640.3 1081 548.8 1081C457.3 1081 365.7 1081 274.2 1081C182.7 1081 91.3 1081 45.7 1081L0 1081Z" fill="#24c773"></path></svg>